<svg width="401" height="74" viewBox="0 0 401 74" fill="none" xmlns="http://www.w3.org/2000/svg">
<path d="M47.5792 6.58389H50.2127L46.5258 23.8774H43.5411C43.3655 18.5518 42.3999 14.7186 40.6442 12.3777C38.8885 10.0367 36.1379 8.86629 32.3925 8.86629C30.5783 8.86629 28.9103 9.12964 27.3888 9.65635C25.8672 10.1245 24.5504 10.8268 23.4385 11.7632C22.385 12.6995 21.5365 13.8115 20.8927 15.099C20.3075 16.328 20.0149 17.674 20.0149 19.1371C20.0149 21.2439 20.6001 23.1166 21.7705 24.7553C22.941 26.3939 24.4041 27.9448 26.1598 29.4079C27.974 30.8124 29.9052 32.2462 31.9535 33.7093C34.0604 35.1724 35.9916 36.7817 37.7473 38.5374C39.5615 40.2931 41.0539 42.2829 42.2243 44.5068C43.3948 46.7307 43.98 49.3349 43.98 52.3196C43.98 55.3043 43.3948 58.1134 42.2243 60.7469C41.0539 63.3219 39.4445 65.5751 37.3962 67.5063C35.4064 69.4376 33.0655 70.9592 30.3734 72.0711C27.6814 73.183 24.7845 73.739 21.6828 73.739C15.3038 73.739 9.71481 71.2225 4.91593 66.1895L3.07246 72.8612H0L3.68695 50.5639H6.58383C6.99349 56.5918 8.48583 61.1858 11.0608 64.3461C13.6359 67.5063 17.2058 69.0864 21.7705 69.0864C23.8774 69.0864 25.8086 68.7938 27.5643 68.2086C29.32 67.5648 30.8123 66.7163 32.0413 65.6628C33.3288 64.5509 34.3237 63.2634 35.026 61.8003C35.7868 60.2787 36.1672 58.6401 36.1672 56.8844C36.1672 54.4264 35.5527 52.2611 34.3237 50.3883C33.0947 48.5156 31.5731 46.7599 29.7589 45.1213C27.9447 43.4826 25.9549 41.9025 23.7896 40.3809C21.6242 38.8593 19.6345 37.2499 17.8202 35.5528C16.006 33.7971 14.4844 31.8951 13.2555 29.8468C12.0265 27.7399 11.412 25.3405 11.412 22.6484C11.412 20.132 11.9387 17.7618 12.9921 15.5379C14.104 13.314 15.5964 11.3828 17.4691 9.74413C19.3418 8.10549 21.5365 6.81799 24.0529 5.88162C26.5694 4.88673 29.2615 4.38928 32.1291 4.38928C34.8797 4.38928 37.3377 4.85747 39.503 5.79383C41.6684 6.7302 43.7752 8.22254 45.8235 10.2708L47.5792 6.58389Z" fill="white"/>
<path d="M78.4794 30.0221C76.2555 30.0221 73.9438 31.0463 71.5444 33.0946C69.2035 35.1429 67.0674 37.7179 65.1361 40.8196C63.2049 43.8628 61.6248 47.1694 60.3958 50.7393C59.1668 54.2506 58.5523 57.5279 58.5523 60.5711C58.5523 62.6779 58.9912 64.3751 59.8691 65.6626C60.7469 66.8916 61.9466 67.5061 63.4682 67.5061C64.8143 67.5061 66.2188 66.9794 67.6819 65.926C69.145 64.814 70.5495 63.3802 71.8955 61.6245C73.3001 59.8103 74.6169 57.762 75.8458 55.4796C77.0748 53.1972 78.1575 50.8563 79.0939 48.4569C80.0302 45.9989 80.7618 43.5995 81.2885 41.2585C81.8152 38.9176 82.0785 36.8108 82.0785 34.9381C82.0785 33.4165 81.7567 32.2167 81.1129 31.3389C80.4691 30.4611 79.5913 30.0221 78.4794 30.0221ZM87.5212 26.3352H94.8073L89.8036 39.7662C88.9842 41.9901 88.1649 44.3603 87.3456 46.8767C86.5848 49.3932 85.8825 51.8219 85.2388 54.1629C84.6535 56.5038 84.1854 58.6399 83.8342 60.5711C83.4831 62.5024 83.3075 63.9362 83.3075 64.8726C83.3075 66.5697 83.8635 67.4183 84.9754 67.4183C85.7947 67.4183 86.9652 66.5697 88.4868 64.8726C90.0669 63.1754 91.8226 60.9808 93.7539 58.2887L96.0363 60.1322C93.5783 64.4629 90.9155 67.828 88.0479 70.2274C85.2388 72.5683 82.5175 73.7388 79.8839 73.7388C78.5379 73.7388 77.4845 73.2413 76.7237 72.2465C76.0214 71.193 75.6703 69.4959 75.6703 67.155C75.6703 66.6283 75.6703 66.0138 75.6703 65.3115C75.7288 64.6092 75.8166 63.6728 75.9336 62.5024L75.5825 62.4146C74.7046 64.0532 73.6512 65.5748 72.4222 66.9794C71.2518 68.3254 69.9643 69.5251 68.5597 70.5785C67.1552 71.5734 65.6921 72.3342 64.1705 72.8609C62.6489 73.4462 61.1566 73.7388 59.6935 73.7388C56.7088 73.7388 54.3679 72.6268 52.6707 70.403C51.0321 68.1206 50.2128 64.9896 50.2128 61.01C50.2128 56.972 51.0614 52.8461 52.7585 48.6324C54.4557 44.4188 56.6503 40.6148 59.3424 37.2205C62.0344 33.7676 65.0191 30.9585 68.2964 28.7931C71.5737 26.5693 74.7924 25.4573 77.9527 25.4573C79.8839 25.4573 81.464 25.9255 82.693 26.8619C83.922 27.7397 84.9169 29.2028 85.6777 31.2511L87.5212 26.3352Z" fill="white"/>
<path d="M110.081 12.202C110.374 11.1486 110.667 10.0952 110.959 9.04178C111.252 7.92985 111.398 7.11053 111.398 6.58382C111.398 4.53552 109.174 3.51137 104.726 3.51137L105.429 0.877829L121.493 0.0877686L105.78 57.7622C105.312 59.3423 104.961 60.7468 104.726 61.9758C104.492 63.1463 104.375 64.1412 104.375 64.9605C104.375 65.4872 104.522 65.9554 104.814 66.365C105.107 66.7747 105.575 66.9795 106.219 66.9795C107.155 66.9795 108.15 66.5991 109.203 65.8383C110.257 65.019 111.252 64.0827 112.188 63.0292C113.183 61.9173 114.061 60.8054 114.822 59.6934C115.582 58.523 116.138 57.6159 116.49 56.9721L119.123 58.4644C118.245 60.4542 117.104 62.3855 115.699 64.2582C114.295 66.0724 112.803 67.6818 111.222 69.0864C109.642 70.4909 108.033 71.6321 106.394 72.51C104.814 73.3293 103.351 73.7389 102.005 73.7389C99.9568 73.7389 98.4352 73.3 97.4403 72.4222C96.504 71.5443 96.0358 70.0813 96.0358 68.033C96.0358 66.8625 96.2113 65.2824 96.5625 63.2926C96.9136 61.3028 97.5281 58.5815 98.4059 55.1286L110.081 12.202Z" fill="white"/>
<path d="M152.833 61.1856C147.742 69.5544 141.48 73.7388 134.047 73.7388C130.009 73.7388 126.907 72.5098 124.742 70.0518C122.577 67.5354 121.494 63.9947 121.494 59.4299C121.494 55.3918 122.313 51.3537 123.952 47.3157C125.649 43.2776 127.844 39.6492 130.536 36.4304C133.228 33.1531 136.242 30.5196 139.578 28.5298C142.913 26.4815 146.249 25.4573 149.585 25.4573C152.394 25.4573 154.677 26.1889 156.432 27.6519C158.246 29.0565 159.154 30.8707 159.154 33.0946C159.154 35.1429 158.393 37.2497 156.871 39.4151C155.35 41.5804 153.272 43.6287 150.638 45.56C148.063 47.4912 145.02 49.2469 141.509 50.827C138.056 52.4072 134.369 53.6361 130.448 54.514C130.331 55.3333 130.243 56.1526 130.185 56.972C130.126 57.7328 130.097 58.5228 130.097 59.3421C130.097 65.7211 132.35 68.9106 136.856 68.9106C139.022 68.9106 141.246 68.0621 143.528 66.3649C145.869 64.6677 148.034 62.3268 150.024 59.3421L152.833 61.1856ZM147.829 29.5832C146.308 29.5832 144.728 30.1684 143.089 31.3389C141.45 32.5094 139.87 34.0895 138.349 36.0793C136.886 38.0105 135.54 40.2344 134.311 42.7509C133.082 45.2674 132.087 47.8716 131.326 50.5637C134.135 49.8029 136.739 48.808 139.139 47.579C141.538 46.35 143.586 44.9747 145.284 43.4532C147.039 41.873 148.415 40.2344 149.409 38.5372C150.404 36.7815 150.902 35.0258 150.902 33.2702C150.902 30.8122 149.878 29.5832 147.829 29.5832Z" fill="white"/>
<path d="M167.054 38.8884C167.054 36.9571 167.405 35.1721 168.107 33.5335C168.868 31.8949 169.892 30.4903 171.18 29.3199C172.467 28.0909 173.989 27.1545 175.744 26.5108C177.559 25.8085 179.519 25.4573 181.626 25.4573C184.435 25.4573 186.776 26.1596 188.649 27.5642C190.521 28.9687 191.458 30.7829 191.458 33.0068C191.458 34.2358 191.107 35.2014 190.404 35.9037C189.761 36.606 188.853 36.9571 187.683 36.9571C186.337 36.9571 185.371 36.5767 184.786 35.8159C184.201 34.9966 183.703 34.1187 183.294 33.1824C182.884 32.1875 182.445 31.2804 181.977 30.4611C181.509 29.6417 180.719 29.2321 179.607 29.2321C178.319 29.2321 177.237 29.788 176.359 30.9C175.481 32.0119 175.042 33.3872 175.042 35.0258C175.042 36.9571 175.598 38.7713 176.71 40.4685C177.88 42.1071 179.168 43.8335 180.572 45.6478C181.977 47.462 183.235 49.4518 184.347 51.6171C185.518 53.7825 186.103 56.3282 186.103 59.2544C186.103 61.2441 185.664 63.1169 184.786 64.8726C183.967 66.6282 182.826 68.1791 181.363 69.5251C179.958 70.8126 178.319 71.8368 176.447 72.5976C174.574 73.3584 172.643 73.7388 170.653 73.7388C167.141 73.7388 164.332 72.978 162.226 71.4564C160.177 69.9348 159.153 67.945 159.153 65.487C159.153 63.7899 159.533 62.4731 160.294 61.5367C161.114 60.5419 162.196 60.0444 163.542 60.0444C166.059 60.0444 167.493 61.7708 167.844 65.2237C168.019 67.0964 168.312 68.3547 168.722 68.9984C169.19 69.5837 170.097 69.8763 171.443 69.8763C173.55 69.8763 175.218 69.2618 176.447 68.0328C177.676 66.7453 178.29 64.9896 178.29 62.7657C178.29 60.4248 177.705 58.3472 176.534 56.533C175.364 54.7188 174.076 52.9631 172.672 51.266C171.267 49.5103 169.98 47.6668 168.809 45.7355C167.639 43.8043 167.054 41.5219 167.054 38.8884Z" fill="white"/>
<path d="M213.404 55.5675C212.819 57.6159 212.351 59.4301 211.999 61.0102C211.707 62.5903 211.561 63.7608 211.561 64.5216C211.561 68.0329 214.896 69.7886 221.568 69.7886L220.602 73.7389H191.458L192.424 70.2275C195.233 70.2275 197.515 69.4082 199.271 67.7696C201.026 66.0724 202.402 63.4096 203.397 59.7812L213.755 21.0683C214.516 18.2592 214.896 16.0645 214.896 14.4844C214.896 13.6066 214.75 12.875 214.457 12.2898C214.165 11.7046 213.667 11.2364 212.965 10.8853C212.263 10.4756 211.326 10.183 210.156 10.0074C208.986 9.83185 207.522 9.7148 205.767 9.65628L206.732 6.1449H231.136C238.686 6.1449 244.567 7.49093 248.781 10.183C252.995 12.8165 255.102 16.5035 255.102 21.2438C255.102 24.287 254.312 27.0961 252.731 29.6711C251.151 32.2461 248.957 34.47 246.148 36.3428C243.339 38.2155 239.973 39.6786 236.052 40.732C232.19 41.7854 227.976 42.3121 223.411 42.3121H217.091L213.404 55.5675ZM218.232 37.8351H222.534C225.869 37.8351 228.913 37.4254 231.663 36.6061C234.472 35.7283 236.872 34.5285 238.862 33.0069C240.91 31.4853 242.49 29.7004 243.602 27.6521C244.772 25.5453 245.358 23.2336 245.358 20.7171C245.358 13.6358 240.676 10.0952 231.312 10.0952C230.142 10.0952 229.147 10.2122 228.327 10.4463C227.567 10.6219 226.894 10.973 226.308 11.4997C225.782 12.0265 225.313 12.758 224.904 13.6944C224.494 14.5722 224.114 15.7134 223.763 17.118L218.232 37.8351Z" fill="white"/>
<path d="M269.411 73.7388C267.421 73.7388 265.549 73.3584 263.793 72.5976C262.096 71.7783 260.603 70.6078 259.316 69.0862C258.028 67.5646 257.004 65.7211 256.243 63.5558C255.483 61.3319 255.102 58.8447 255.102 56.0941C255.102 52.2901 255.804 48.5447 257.209 44.8577C258.672 41.1708 260.574 37.8935 262.915 35.0258C265.256 32.1582 267.919 29.8466 270.903 28.0909C273.947 26.3352 277.078 25.4573 280.296 25.4573C282.403 25.4573 284.334 25.867 286.09 26.6863C287.904 27.4471 289.426 28.5883 290.655 30.1099C291.942 31.573 292.937 33.3579 293.64 35.4648C294.4 37.5131 294.781 39.7955 294.781 42.312C294.781 45.9989 294.049 49.7151 292.586 53.4606C291.123 57.206 289.192 60.5711 286.792 63.5558C284.451 66.5405 281.759 68.9984 278.716 70.9297C275.673 72.8024 272.571 73.7388 269.411 73.7388ZM269.938 69.3496C271.928 69.3496 273.888 68.3254 275.819 66.2771C277.809 64.2288 279.565 61.6538 281.086 58.5521C282.667 55.3918 283.925 51.9682 284.861 48.2813C285.856 44.5944 286.353 41.083 286.353 37.7472C286.353 34.6454 285.797 32.5094 284.686 31.3389C283.632 30.1684 282.169 29.5832 280.296 29.5832C279.009 29.5832 277.692 30.0514 276.346 30.9878C275.059 31.8656 273.83 33.0946 272.659 34.6747C271.489 36.2548 270.377 38.069 269.323 40.1173C268.328 42.1656 267.451 44.331 266.69 46.6134C265.929 48.8958 265.344 51.2367 264.934 53.6361C264.524 55.9771 264.32 58.2302 264.32 60.3955C264.32 63.6728 264.846 65.9845 265.9 67.3305C266.953 68.6766 268.299 69.3496 269.938 69.3496Z" fill="white"/>
<path d="M303.91 43.8922C304.729 41.6098 305.314 39.7664 305.666 38.3618C306.017 36.9573 306.192 35.8453 306.192 35.026C306.192 34.2067 306.046 33.68 305.753 33.4459C305.519 33.1533 305.256 33.007 304.963 33.007C304.32 33.007 303.617 33.3288 302.856 33.9726C302.096 34.5578 301.335 35.2601 300.574 36.0794C299.813 36.8987 299.14 37.7181 298.555 38.5374C297.97 39.3567 297.56 40.0005 297.326 40.4686L294.78 38.8885C295.483 37.601 296.448 36.1672 297.677 34.5871C298.965 33.007 300.398 31.5439 301.979 30.1979C303.559 28.8518 305.197 27.7399 306.895 26.862C308.592 25.9257 310.201 25.4575 311.723 25.4575C313.186 25.4575 314.268 25.8964 314.971 26.7743C315.731 27.5936 316.112 29.1152 316.112 31.3391C316.112 33.0362 315.585 35.3186 314.532 38.1862C313.537 41.0539 312.22 44.7408 310.581 49.2471L307.333 58.1133C307.216 58.4059 307.041 58.8741 306.807 59.5179C306.631 60.1031 306.426 60.7468 306.192 61.4491C306.017 62.0929 305.841 62.7366 305.666 63.3804C305.548 64.0241 305.49 64.5508 305.49 64.9605C305.49 65.4872 305.636 65.9554 305.929 66.3651C306.222 66.7747 306.69 66.9795 307.333 66.9795C308.211 66.9795 309.118 66.6284 310.055 65.9261C310.991 65.1653 311.898 64.2875 312.776 63.2926C313.654 62.2977 314.444 61.3028 315.146 60.3079C315.849 59.2545 316.375 58.4352 316.726 57.85L319.36 59.3423C318.658 60.7468 317.692 62.2977 316.463 63.9949C315.293 65.692 313.947 67.2722 312.425 68.7352C310.903 70.1398 309.235 71.3395 307.421 72.3344C305.607 73.2708 303.734 73.7389 301.803 73.7389C300.106 73.7389 298.818 73.3 297.941 72.4222C297.121 71.5443 296.712 70.0813 296.712 68.033C296.712 66.3358 296.975 64.5216 297.502 62.5903C298.087 60.6005 298.906 58.1133 299.96 55.1286L303.91 43.8922ZM316.814 11.0608C315.351 11.0608 314.064 10.5634 312.952 9.56851C311.898 8.57362 311.372 7.28611 311.372 5.70599C311.372 4.12587 311.898 2.77984 312.952 1.6679C314.005 0.555968 315.293 0 316.814 0C318.453 0 319.799 0.555968 320.852 1.6679C321.906 2.77984 322.432 4.09661 322.432 5.61821C322.432 7.1398 321.876 8.42731 320.764 9.48072C319.653 10.5341 318.336 11.0608 316.814 11.0608Z" fill="white"/>
<path d="M358.248 30.0221C356.843 30.0221 355.234 30.7537 353.42 32.2167C351.664 33.6213 349.85 35.5233 347.977 37.9227C346.163 40.2636 344.407 42.9557 342.71 45.9989C341.013 49.0421 339.579 52.1438 338.409 55.3041L331.912 72.8609H324.187L330.684 52.7583C331.737 49.5395 332.615 46.789 333.317 44.5066C334.019 42.2242 334.575 40.3222 334.985 38.8006C335.453 37.2205 335.775 35.9622 335.951 35.0258C336.126 34.031 336.214 33.2409 336.214 32.6557C336.214 31.0755 335.716 30.2855 334.722 30.2855C334.078 30.2855 333.317 30.6951 332.439 31.5145C331.561 32.3338 330.654 33.4165 329.718 34.7625C328.84 36.05 327.991 37.5423 327.172 39.2395C326.353 40.9367 325.651 42.6631 325.065 44.4188L322.432 43.102C324.48 37.0741 326.762 32.6264 329.279 29.7588C331.854 26.8912 334.78 25.4573 338.057 25.4573C339.93 25.4573 341.247 25.984 342.008 27.0375C342.827 28.0909 343.237 29.8758 343.237 32.3923C343.237 35.377 342.739 38.0398 341.744 40.3807L342.008 40.644C344.992 35.377 348.006 31.5437 351.05 29.1443C354.151 26.6863 357.516 25.4573 361.145 25.4573C363.72 25.4573 365.68 26.0718 367.026 27.3008C368.372 28.5298 369.045 30.2855 369.045 32.5679C369.045 33.3287 368.958 34.1773 368.782 35.1136C368.665 36.05 368.431 37.1912 368.08 38.5372C367.729 39.8247 367.231 41.3756 366.587 43.1898C366.002 45.004 365.271 47.2279 364.393 49.8614C363.047 53.841 361.935 57.1768 361.057 59.8688C360.179 62.5609 359.74 64.4629 359.74 65.5748C359.74 66.4527 360.033 66.8916 360.618 66.8916C361.437 66.8916 362.637 66.2186 364.217 64.8726C365.797 63.5265 367.933 61.3612 370.625 58.3765L372.908 59.6055C371.971 61.3612 370.742 63.0876 369.221 64.7848C367.758 66.4234 366.207 67.9158 364.568 69.2618C362.988 70.6078 361.408 71.6905 359.828 72.5098C358.248 73.3291 356.873 73.7388 355.702 73.7388C354.239 73.7388 353.069 73.095 352.191 71.8075C351.371 70.52 350.962 68.8229 350.962 66.716C350.962 65.8967 351.02 65.0774 351.137 64.2581C351.313 63.3802 351.635 62.1512 352.103 60.5711C352.571 58.991 353.244 56.8842 354.122 54.2506C355.058 51.5586 356.317 48.0179 357.897 43.6287C358.423 42.1071 358.862 40.8196 359.213 39.7662C359.565 38.7128 359.828 37.8057 360.004 37.0449C360.238 36.2256 360.384 35.5233 360.442 34.9381C360.56 34.3528 360.618 33.7969 360.618 33.2702C360.618 31.1048 359.828 30.0221 358.248 30.0221Z" fill="white"/>
<path d="M390.202 33.6215L382.916 57.7622C381.921 60.9225 381.395 63.3219 381.336 64.9606C381.336 65.4873 381.453 65.9555 381.687 66.3651C381.98 66.7748 382.448 66.9796 383.092 66.9796C384.145 66.9796 385.257 66.5992 386.428 65.8384C387.598 65.0191 388.71 64.0827 389.764 63.0293C390.875 61.9174 391.841 60.8054 392.66 59.6935C393.538 58.523 394.182 57.6159 394.592 56.9722L397.137 58.4645C396.143 60.4543 394.884 62.3856 393.363 64.2583C391.841 66.0725 390.232 67.6819 388.535 69.0864C386.837 70.491 385.111 71.6322 383.355 72.51C381.658 73.3293 380.107 73.739 378.703 73.739C376.654 73.739 375.162 73.3001 374.226 72.4222C373.348 71.5444 372.909 70.0813 372.909 68.033C372.909 66.8626 373.114 65.2824 373.523 63.2927C373.933 61.3029 374.635 58.5816 375.63 55.1287L382.126 33.6215H374.577L375.718 29.5834H383.355L387.92 14.4845H395.996L391.431 29.5834H401L399.771 33.6215H390.202Z" fill="white"/>
</svg>
