<svg width="55" height="11" viewBox="0 0 55 11" fill="none" xmlns="http://www.w3.org/2000/svg">
<path d="M6.696 0.939999H7.056L6.552 3.304H6.144C6.12 2.576 5.988 2.052 5.748 1.732C5.508 1.412 5.132 1.252 4.62 1.252C4.372 1.252 4.144 1.288 3.936 1.36C3.728 1.424 3.548 1.52 3.396 1.648C3.252 1.776 3.136 1.928 3.048 2.104C2.968 2.272 2.928 2.456 2.928 2.656C2.928 2.944 3.008 3.2 3.168 3.424C3.328 3.648 3.528 3.86 3.768 4.06C4.016 4.252 4.28 4.448 4.56 4.648C4.848 4.848 5.112 5.068 5.352 5.308C5.6 5.548 5.804 5.82 5.964 6.124C6.124 6.428 6.204 6.784 6.204 7.192C6.204 7.6 6.124 7.984 5.964 8.344C5.804 8.696 5.584 9.004 5.304 9.268C5.032 9.532 4.712 9.74 4.344 9.892C3.976 10.044 3.58 10.12 3.156 10.12C2.284 10.12 1.52 9.776 0.864001 9.088L0.612001 10H0.192001L0.696001 6.952H1.092C1.148 7.776 1.352 8.404 1.704 8.836C2.056 9.268 2.544 9.484 3.168 9.484C3.456 9.484 3.72 9.444 3.96 9.364C4.2 9.276 4.404 9.16 4.572 9.016C4.748 8.864 4.884 8.688 4.98 8.488C5.084 8.28 5.136 8.056 5.136 7.816C5.136 7.48 5.052 7.184 4.884 6.928C4.716 6.672 4.508 6.432 4.26 6.208C4.012 5.984 3.74 5.768 3.444 5.56C3.148 5.352 2.876 5.132 2.628 4.9C2.38 4.66 2.172 4.4 2.004 4.12C1.836 3.832 1.752 3.504 1.752 3.136C1.752 2.792 1.824 2.468 1.968 2.164C2.12 1.86 2.324 1.596 2.58 1.372C2.836 1.148 3.136 0.971999 3.48 0.844C3.824 0.707999 4.192 0.639999 4.584 0.639999C4.96 0.639999 5.296 0.703999 5.592 0.831999C5.888 0.959999 6.176 1.164 6.456 1.444L6.696 0.939999Z" fill="#060606"/>
<path d="M10.92 4.144C10.616 4.144 10.3 4.284 9.972 4.564C9.652 4.844 9.36 5.196 9.096 5.62C8.832 6.036 8.616 6.488 8.448 6.976C8.28 7.456 8.196 7.904 8.196 8.32C8.196 8.608 8.256 8.84 8.376 9.016C8.496 9.184 8.66 9.268 8.868 9.268C9.052 9.268 9.244 9.196 9.444 9.052C9.644 8.9 9.836 8.704 10.02 8.464C10.212 8.216 10.392 7.936 10.56 7.624C10.728 7.312 10.876 6.992 11.004 6.664C11.132 6.328 11.232 6 11.304 5.68C11.376 5.36 11.412 5.072 11.412 4.816C11.412 4.608 11.368 4.444 11.28 4.324C11.192 4.204 11.072 4.144 10.92 4.144ZM12.156 3.64H13.152L12.468 5.476C12.356 5.78 12.244 6.104 12.132 6.448C12.028 6.792 11.932 7.124 11.844 7.44401C11.764 7.76401 11.7 8.056 11.652 8.32C11.604 8.584 11.58 8.78 11.58 8.908C11.58 9.14 11.656 9.256 11.808 9.256C11.92 9.256 12.08 9.14 12.288 8.908C12.504 8.676 12.744 8.376 13.008 8.008L13.32 8.26C12.984 8.85201 12.62 9.31201 12.228 9.64001C11.844 9.96001 11.472 10.12 11.112 10.12C10.928 10.12 10.784 10.052 10.68 9.91601C10.584 9.77201 10.536 9.54001 10.536 9.22001C10.536 9.14801 10.536 9.06401 10.536 8.96801C10.544 8.87201 10.556 8.744 10.572 8.584L10.524 8.572C10.404 8.796 10.26 9.004 10.092 9.196C9.932 9.38 9.756 9.544 9.564 9.688C9.372 9.824 9.172 9.928 8.964 10C8.756 10.08 8.552 10.12 8.352 10.12C7.944 10.12 7.624 9.968 7.392 9.664C7.168 9.352 7.056 8.924 7.056 8.38C7.056 7.828 7.172 7.264 7.404 6.688C7.636 6.112 7.936 5.592 8.304 5.128C8.672 4.656 9.08 4.272 9.528 3.976C9.976 3.672 10.416 3.52 10.848 3.52C11.112 3.52 11.328 3.584 11.496 3.712C11.664 3.832 11.8 4.032 11.904 4.312L12.156 3.64Z" fill="#060606"/>
<path d="M15.24 1.708C15.28 1.564 15.32 1.42 15.36 1.276C15.4 1.124 15.42 1.012 15.42 0.940002C15.42 0.660002 15.116 0.520002 14.508 0.520002L14.604 0.160002L16.8 0.052002L14.652 7.936C14.588 8.152 14.54 8.344 14.508 8.512C14.476 8.672 14.46 8.808 14.46 8.92C14.46 8.992 14.48 9.056 14.52 9.112C14.56 9.168 14.624 9.196 14.712 9.196C14.84 9.196 14.976 9.144 15.12 9.04C15.264 8.928 15.4 8.8 15.528 8.656C15.664 8.504 15.784 8.352 15.888 8.2C15.992 8.04 16.068 7.916 16.116 7.828L16.476 8.032C16.356 8.304 16.2 8.568 16.008 8.824C15.816 9.072 15.612 9.292 15.396 9.484C15.18 9.676 14.96 9.832 14.736 9.952C14.52 10.064 14.32 10.12 14.136 10.12C13.856 10.12 13.648 10.06 13.512 9.94C13.384 9.82 13.32 9.62 13.32 9.34C13.32 9.18 13.344 8.964 13.392 8.692C13.44 8.42 13.524 8.048 13.644 7.576L15.24 1.708Z" fill="#060606"/>
<path d="M21.084 8.40401C20.388 9.54801 19.532 10.12 18.516 10.12C17.964 10.12 17.54 9.952 17.244 9.616C16.948 9.272 16.8 8.788 16.8 8.164C16.8 7.612 16.912 7.06 17.136 6.508C17.368 5.956 17.668 5.46 18.036 5.02C18.404 4.572 18.816 4.212 19.272 3.94C19.728 3.66 20.184 3.52 20.64 3.52C21.024 3.52 21.336 3.62 21.576 3.82C21.824 4.012 21.948 4.26 21.948 4.564C21.948 4.844 21.844 5.132 21.636 5.428C21.428 5.724 21.144 6.004 20.784 6.268C20.432 6.532 20.016 6.772 19.536 6.988C19.064 7.204 18.56 7.372 18.024 7.492C18.008 7.604 17.996 7.716 17.988 7.828C17.98 7.932 17.976 8.04 17.976 8.152C17.976 9.024 18.284 9.46 18.9 9.46C19.196 9.46 19.5 9.344 19.812 9.112C20.132 8.88 20.428 8.56 20.7 8.152L21.084 8.40401ZM20.4 4.084C20.192 4.084 19.976 4.164 19.752 4.324C19.528 4.484 19.312 4.7 19.104 4.972C18.904 5.236 18.72 5.54 18.552 5.884C18.384 6.228 18.248 6.584 18.144 6.952C18.528 6.848 18.884 6.712 19.212 6.544C19.54 6.376 19.82 6.188 20.052 5.98C20.292 5.764 20.48 5.54 20.616 5.308C20.752 5.068 20.82 4.828 20.82 4.588C20.82 4.252 20.68 4.084 20.4 4.084Z" fill="#060606"/>
<path d="M23.028 5.356C23.028 5.092 23.076 4.848 23.172 4.624C23.276 4.4 23.416 4.208 23.592 4.048C23.768 3.88 23.976 3.752 24.216 3.664C24.464 3.568 24.732 3.52 25.02 3.52C25.404 3.52 25.724 3.616 25.98 3.808C26.236 4 26.364 4.248 26.364 4.552C26.364 4.72 26.316 4.852 26.22 4.948C26.132 5.044 26.008 5.092 25.848 5.092C25.664 5.092 25.532 5.04 25.452 4.936C25.372 4.824 25.304 4.704 25.248 4.576C25.192 4.44 25.132 4.316 25.068 4.204C25.004 4.092 24.896 4.036 24.744 4.036C24.568 4.036 24.42 4.112 24.3 4.264C24.18 4.416 24.12 4.604 24.12 4.828C24.12 5.092 24.196 5.34 24.348 5.572C24.508 5.796 24.684 6.032 24.876 6.28C25.068 6.528 25.24 6.8 25.392 7.096C25.552 7.392 25.632 7.74001 25.632 8.14001C25.632 8.41201 25.572 8.668 25.452 8.908C25.34 9.148 25.184 9.36 24.984 9.544C24.792 9.72 24.568 9.86 24.312 9.964C24.056 10.068 23.792 10.12 23.52 10.12C23.04 10.12 22.656 10.016 22.368 9.808C22.088 9.6 21.948 9.328 21.948 8.992C21.948 8.76 22 8.58 22.104 8.452C22.216 8.316 22.364 8.248 22.548 8.248C22.892 8.248 23.088 8.48401 23.136 8.95601C23.16 9.21201 23.2 9.384 23.256 9.472C23.32 9.552 23.444 9.592 23.628 9.592C23.916 9.592 24.144 9.508 24.312 9.34C24.48 9.164 24.564 8.924 24.564 8.62C24.564 8.3 24.484 8.016 24.324 7.768C24.164 7.52 23.988 7.28001 23.796 7.04801C23.604 6.808 23.428 6.556 23.268 6.292C23.108 6.028 23.028 5.716 23.028 5.356Z" fill="#060606"/>
<path d="M29.364 7.636C29.284 7.916 29.22 8.164 29.172 8.38C29.132 8.596 29.112 8.756 29.112 8.86C29.112 9.34 29.568 9.58 30.48 9.58L30.348 10.12H26.364L26.496 9.64C26.88 9.64 27.192 9.528 27.432 9.304C27.672 9.072 27.86 8.708 27.996 8.212L29.412 2.92C29.516 2.536 29.568 2.236 29.568 2.02C29.568 1.9 29.548 1.8 29.508 1.72C29.468 1.64 29.4 1.576 29.304 1.528C29.208 1.472 29.08 1.432 28.92 1.408C28.76 1.384 28.56 1.368 28.32 1.36L28.452 0.879997H31.788C32.82 0.879997 33.624 1.064 34.2 1.432C34.776 1.792 35.064 2.296 35.064 2.944C35.064 3.36 34.956 3.744 34.74 4.096C34.524 4.448 34.224 4.752 33.84 5.008C33.456 5.264 32.996 5.464 32.46 5.608C31.932 5.752 31.356 5.824 30.732 5.824H29.868L29.364 7.636ZM30.024 5.212H30.612C31.068 5.212 31.484 5.156 31.86 5.044C32.244 4.924 32.572 4.76 32.844 4.552C33.124 4.344 33.34 4.1 33.492 3.82C33.652 3.532 33.732 3.216 33.732 2.872C33.732 1.904 33.092 1.42 31.812 1.42C31.652 1.42 31.516 1.436 31.404 1.468C31.3 1.492 31.208 1.54 31.128 1.612C31.056 1.684 30.992 1.784 30.936 1.912C30.88 2.032 30.828 2.188 30.78 2.38L30.024 5.212Z" fill="#005D56"/>
<path d="M37.02 10.12C36.748 10.12 36.492 10.068 36.252 9.964C36.02 9.852 35.816 9.692 35.64 9.484C35.464 9.276 35.324 9.024 35.22 8.728C35.116 8.424 35.064 8.084 35.064 7.708C35.064 7.188 35.16 6.676 35.352 6.172C35.552 5.668 35.812 5.22 36.132 4.828C36.452 4.436 36.816 4.12 37.224 3.88C37.64 3.64 38.068 3.52 38.508 3.52C38.796 3.52 39.06 3.576 39.3 3.688C39.548 3.792 39.756 3.948 39.924 4.156C40.1 4.356 40.236 4.6 40.332 4.888C40.436 5.168 40.488 5.48 40.488 5.824C40.488 6.328 40.388 6.836 40.188 7.348C39.988 7.86 39.724 8.32 39.396 8.728C39.076 9.136 38.708 9.472 38.292 9.736C37.876 9.992 37.452 10.12 37.02 10.12ZM37.092 9.52C37.364 9.52 37.632 9.38001 37.896 9.10001C38.168 8.82001 38.408 8.468 38.616 8.044C38.832 7.612 39.004 7.14401 39.132 6.64001C39.268 6.136 39.336 5.656 39.336 5.2C39.336 4.776 39.26 4.484 39.108 4.324C38.964 4.164 38.764 4.084 38.508 4.084C38.332 4.084 38.152 4.148 37.968 4.276C37.792 4.396 37.624 4.564 37.464 4.78C37.304 4.996 37.152 5.244 37.008 5.524C36.872 5.804 36.752 6.1 36.648 6.412C36.544 6.724 36.464 7.044 36.408 7.372C36.352 7.692 36.324 8 36.324 8.296C36.324 8.744 36.396 9.06001 36.54 9.24401C36.684 9.42801 36.868 9.52 37.092 9.52Z" fill="#005D56"/>
<path d="M41.736 6.04C41.848 5.728 41.928 5.476 41.976 5.284C42.024 5.092 42.048 4.94 42.048 4.828C42.048 4.716 42.028 4.644 41.988 4.612C41.956 4.572 41.92 4.552 41.88 4.552C41.792 4.552 41.696 4.596 41.592 4.684C41.488 4.764 41.384 4.86 41.28 4.972C41.176 5.084 41.084 5.196 41.004 5.308C40.924 5.42 40.868 5.508 40.836 5.572L40.488 5.356C40.584 5.18 40.716 4.984 40.884 4.768C41.06 4.552 41.256 4.352 41.472 4.168C41.688 3.984 41.912 3.832 42.144 3.712C42.376 3.584 42.596 3.52 42.804 3.52C43.004 3.52 43.152 3.58 43.248 3.7C43.352 3.812 43.404 4.02 43.404 4.324C43.404 4.556 43.332 4.868 43.188 5.26C43.052 5.652 42.872 6.156 42.648 6.772L42.204 7.984C42.188 8.024 42.164 8.088 42.132 8.176C42.108 8.256 42.08 8.344 42.048 8.44C42.024 8.528 42 8.616 41.976 8.704C41.96 8.792 41.952 8.864 41.952 8.92C41.952 8.992 41.972 9.056 42.012 9.112C42.052 9.168 42.116 9.196 42.204 9.196C42.324 9.196 42.448 9.148 42.576 9.052C42.704 8.948 42.828 8.828 42.948 8.692C43.068 8.556 43.176 8.42 43.272 8.284C43.368 8.14 43.44 8.028 43.488 7.948L43.848 8.152C43.752 8.344 43.62 8.556 43.452 8.788C43.292 9.02 43.108 9.236 42.9 9.436C42.692 9.628 42.464 9.792 42.216 9.928C41.968 10.056 41.712 10.12 41.448 10.12C41.216 10.12 41.04 10.06 40.92 9.94C40.808 9.82 40.752 9.62 40.752 9.34C40.752 9.108 40.788 8.86 40.86 8.596C40.94 8.324 41.052 7.984 41.196 7.576L41.736 6.04ZM43.5 1.552C43.3 1.552 43.124 1.484 42.972 1.348C42.828 1.212 42.756 1.036 42.756 0.820001C42.756 0.604001 42.828 0.420001 42.972 0.268001C43.116 0.116001 43.292 0.0400009 43.5 0.0400009C43.724 0.0400009 43.908 0.116001 44.052 0.268001C44.196 0.420001 44.268 0.600001 44.268 0.808001C44.268 1.016 44.192 1.192 44.04 1.336C43.888 1.48 43.708 1.552 43.5 1.552Z" fill="#005D56"/>
<path d="M49.164 4.144C48.972 4.144 48.752 4.244 48.504 4.444C48.264 4.636 48.016 4.896 47.76 5.224C47.512 5.544 47.272 5.912 47.04 6.328C46.808 6.744 46.612 7.16801 46.452 7.60001L45.564 10H44.508L45.396 7.252C45.54 6.812 45.66 6.436 45.756 6.124C45.852 5.812 45.928 5.552 45.984 5.344C46.048 5.128 46.092 4.956 46.116 4.828C46.14 4.692 46.152 4.584 46.152 4.504C46.152 4.288 46.084 4.18 45.948 4.18C45.86 4.18 45.756 4.236 45.636 4.348C45.516 4.46 45.392 4.608 45.264 4.792C45.144 4.968 45.028 5.172 44.916 5.404C44.804 5.636 44.708 5.872 44.628 6.112L44.268 5.932C44.548 5.108 44.86 4.5 45.204 4.108C45.556 3.716 45.956 3.52 46.404 3.52C46.66 3.52 46.84 3.592 46.944 3.736C47.056 3.88 47.112 4.124 47.112 4.468C47.112 4.876 47.044 5.24 46.908 5.56L46.944 5.596C47.352 4.876 47.764 4.352 48.18 4.024C48.604 3.688 49.064 3.52 49.56 3.52C49.912 3.52 50.18 3.604 50.364 3.772C50.548 3.94 50.64 4.18 50.64 4.492C50.64 4.596 50.628 4.712 50.604 4.84C50.588 4.968 50.556 5.124 50.508 5.308C50.46 5.484 50.392 5.696 50.304 5.944C50.224 6.192 50.124 6.496 50.004 6.856C49.82 7.4 49.668 7.856 49.548 8.224C49.428 8.592 49.368 8.852 49.368 9.004C49.368 9.124 49.408 9.184 49.488 9.184C49.6 9.184 49.764 9.092 49.98 8.908C50.196 8.724 50.488 8.428 50.856 8.02L51.168 8.188C51.04 8.428 50.872 8.664 50.664 8.896C50.464 9.12 50.252 9.32401 50.028 9.50801C49.812 9.69201 49.596 9.84 49.38 9.952C49.164 10.064 48.976 10.12 48.816 10.12C48.616 10.12 48.456 10.032 48.336 9.856C48.224 9.68 48.168 9.448 48.168 9.16C48.168 9.048 48.176 8.93601 48.192 8.82401C48.216 8.70401 48.26 8.536 48.324 8.32C48.388 8.104 48.48 7.816 48.6 7.456C48.728 7.088 48.9 6.604 49.116 6.004C49.188 5.796 49.248 5.62 49.296 5.476C49.344 5.332 49.38 5.208 49.404 5.104C49.436 4.992 49.456 4.896 49.464 4.816C49.48 4.736 49.488 4.66 49.488 4.588C49.488 4.292 49.38 4.144 49.164 4.144Z" fill="#005D56"/>
<path d="M53.532 4.636L52.536 7.936C52.4 8.368 52.328 8.696 52.32 8.92C52.32 8.992 52.336 9.056 52.368 9.112C52.408 9.168 52.472 9.196 52.56 9.196C52.704 9.196 52.856 9.144 53.016 9.04C53.176 8.928 53.328 8.8 53.472 8.656C53.624 8.504 53.756 8.352 53.868 8.2C53.988 8.04 54.076 7.916 54.132 7.828L54.48 8.032C54.344 8.304 54.172 8.56801 53.964 8.82401C53.756 9.07201 53.536 9.292 53.304 9.484C53.072 9.676 52.836 9.832 52.596 9.952C52.364 10.064 52.152 10.12 51.96 10.12C51.68 10.12 51.476 10.06 51.348 9.94C51.228 9.82 51.168 9.62 51.168 9.34C51.168 9.18 51.196 8.96401 51.252 8.69201C51.308 8.42001 51.404 8.048 51.54 7.576L52.428 4.636H51.396L51.552 4.084H52.596L53.22 2.02H54.324L53.7 4.084H55.008L54.84 4.636H53.532Z" fill="#005D56"/>
</svg>
