<svg width="16" height="10" viewBox="0 0 16 10" fill="none" xmlns="http://www.w3.org/2000/svg">
<path d="M6.696 0.340001H7.056L6.552 2.704H6.144C6.12 1.976 5.988 1.452 5.748 1.132C5.508 0.812001 5.132 0.652001 4.62 0.652001C4.372 0.652001 4.144 0.688001 3.936 0.760001C3.728 0.824001 3.548 0.920001 3.396 1.048C3.252 1.176 3.136 1.328 3.048 1.504C2.968 1.672 2.928 1.856 2.928 2.056C2.928 2.344 3.008 2.6 3.168 2.824C3.328 3.048 3.528 3.26 3.768 3.46C4.016 3.652 4.28 3.848 4.56 4.048C4.848 4.248 5.112 4.468 5.352 4.708C5.6 4.948 5.804 5.22 5.964 5.524C6.124 5.828 6.204 6.184 6.204 6.592C6.204 7 6.124 7.384 5.964 7.744C5.804 8.096 5.584 8.404 5.304 8.668C5.032 8.932 4.712 9.14 4.344 9.292C3.976 9.444 3.58 9.52 3.156 9.52C2.284 9.52 1.52 9.176 0.864001 8.488L0.612001 9.4H0.192001L0.696001 6.352H1.092C1.148 7.176 1.352 7.804 1.704 8.236C2.056 8.668 2.544 8.884 3.168 8.884C3.456 8.884 3.72 8.844 3.96 8.764C4.2 8.676 4.404 8.56 4.572 8.416C4.748 8.264 4.884 8.088 4.98 7.888C5.084 7.68 5.136 7.456 5.136 7.216C5.136 6.88 5.052 6.584 4.884 6.328C4.716 6.072 4.508 5.832 4.26 5.608C4.012 5.384 3.74 5.168 3.444 4.96C3.148 4.752 2.876 4.532 2.628 4.3C2.38 4.06 2.172 3.8 2.004 3.52C1.836 3.232 1.752 2.904 1.752 2.536C1.752 2.192 1.824 1.868 1.968 1.564C2.12 1.26 2.324 0.996001 2.58 0.772001C2.836 0.548001 3.136 0.372001 3.48 0.244001C3.824 0.108001 4.192 0.0400009 4.584 0.0400009C4.96 0.0400009 5.296 0.104001 5.592 0.232001C5.888 0.360001 6.176 0.564001 6.456 0.844001L6.696 0.340001Z" fill="#060606"/>
<path d="M10.056 7.036C9.976 7.316 9.912 7.564 9.864 7.78C9.824 7.996 9.804 8.156 9.804 8.26C9.804 8.74 10.26 8.98 11.172 8.98L11.04 9.52H7.056L7.188 9.04C7.572 9.04 7.884 8.928 8.124 8.704C8.364 8.472 8.552 8.108 8.688 7.612L10.104 2.32C10.208 1.936 10.26 1.636 10.26 1.42C10.26 1.3 10.24 1.2 10.2 1.12C10.16 1.04 10.092 0.975999 9.996 0.927999C9.9 0.871999 9.772 0.831999 9.612 0.807999C9.452 0.783999 9.252 0.767999 9.012 0.759999L9.144 0.279999H12.48C13.512 0.279999 14.316 0.463999 14.892 0.831999C15.468 1.192 15.756 1.696 15.756 2.344C15.756 2.76 15.648 3.144 15.432 3.496C15.216 3.848 14.916 4.152 14.532 4.408C14.148 4.664 13.688 4.864 13.152 5.008C12.624 5.152 12.048 5.224 11.424 5.224H10.56L10.056 7.036ZM10.716 4.612H11.304C11.76 4.612 12.176 4.556 12.552 4.444C12.936 4.324 13.264 4.16 13.536 3.952C13.816 3.744 14.032 3.5 14.184 3.22C14.344 2.932 14.424 2.616 14.424 2.272C14.424 1.304 13.784 0.819999 12.504 0.819999C12.344 0.819999 12.208 0.835999 12.096 0.867999C11.992 0.891999 11.9 0.939999 11.82 1.012C11.748 1.084 11.684 1.184 11.628 1.312C11.572 1.432 11.52 1.588 11.472 1.78L10.716 4.612Z" fill="#005D56"/>
</svg>
